# xmcd
#
# Track frame offsets:
#  182
#  21212
#  34935
#  55187
#  72877
#  92242
#  110292
#  126112
#  147380
#  164300
#  176260
#  192090
#  206607
#  222915
#  242192
#  260550
#  278815
#  296312
#  315300
#  329325
#
# Disc length: 4626 seconds
#
# Revision: 0
# Processed by: cddbd v1.5.1PL2 Copyright (c) Steve Scherf et al.
# Submitted via: Collectorz.com_Music_Collector 6.11
#
DISCID=27121014
DTITLE=Various Artist - Great romantic hits of the 70's and 80's CD 3
DYEAR=1900
DGENRE=Love Songs
TTITLE0=Marc Almond and Gene Pitney - Something's gotten hold of my heart
TTITLE1=Dr. Hook - Sexy eyes
TTITLE2=Bonnie Tyler - Total eclipse of the heart
TTITLE3=Elkie Brooks - Lilac wine
TTITLE4=Bill Withers - Lean on me
TTITLE5=Willie Nelson - Help me make it through the night
TTITLE6=Elaine Paige - Heaven help my heart
TTITLE7=Barbara Dickson - I don't believe in miracles
TTITLE8=Dionne Warwick - Our day will come
TTITLE9=Shadows - God only knows
TTITLE10=Bonnie Tyler - It's a heartache
TTITLE11=Leo Sayer - Raining in my heart
TTITLE12=David Soul - Don't give up on us
TTITLE13=Warwick , Dionne - Heartbreaker
TTITLE14=Roger Whittaker - Miss you nights
TTITLE15=The Shadows - If you leave me now
TTITLE16=Air Supply - All out of love
TTITLE17=Cliff Richard - Whe two worlds drift apart
TTITLE18=Iris Williams - He's out of my life
TTITLE19=Shakin' Stevens - Teardrops
EXTD=
EXTT0=
EXTT1=
EXTT2=
EXTT3=
EXTT4=
EXTT5=
EXTT6=
EXTT7=
EXTT8=
EXTT9=
EXTT10=
EXTT11=
EXTT12=
EXTT13=
EXTT14=
EXTT15=
EXTT16=
EXTT17=
EXTT18=
EXTT19=
PLAYORDER=
